<?xml version="1.0" encoding="iso-8859-1"?>
<!-- Generator: Adobe Illustrator 19.0.0, SVG Export Plug-In . SVG Version: 6.00 Build 0)  -->
<svg xmlns="http://www.w3.org/2000/svg" xmlns:xlink="http://www.w3.org/1999/xlink" version="1.1" id="Layer_1" x="0px" y="0px" viewBox="0 0 439.48 439.48" style="enable-background:new 0 0 439.48 439.48;" xml:space="preserve" width="512" height="512">
<g>
	<path style="fill:#EAB932;" d="M143.633,103.831c-8.5,0-20.463,28-19.313,28.66l-0.01,0.01c-9.21,11.34-23.27,18.58-39.01,18.58   c-27.75,0-50.25-22.5-50.25-50.25s22.5-50.25,50.25-50.25c17.49,0,32.9,8.94,41.89,22.5L143.633,103.831z"/>
	<path style="fill:#FFD039;" d="M135.55,100.841c0,27.75-22.5,50.24-50.25,50.24c-4.47,0-8.81-0.58-12.94-1.68   c-8.21-7.91-13.31-19.01-13.31-31.31c0-24.03,19.48-43.5,43.5-43.5c12.3,0,23.4,5.1,31.32,13.31   C134.97,92.031,135.55,96.371,135.55,100.841z"/>
	<g>
		<path style="fill:#FFD039;" d="M165.243,326.409c8.47,0,15.34,8.4,15.34,18.75c0,10.36-6.87,18.75-15.34,18.75    c-8.47,0-15.34-8.39-15.34-18.75C149.903,334.809,156.773,326.409,165.243,326.409z"/>
		<path style="fill:#EAB932;" d="M197.063,326.409c8.47,0,15.34,8.4,15.34,18.75c0,10.36-6.87,18.75-15.34,18.75h-31.82    c8.47,0,15.34-8.39,15.34-18.75c0-10.35-6.87-18.75-15.34-18.75H197.063z"/>
		<path style="fill:#FFD039;" d="M51.153,314.409c11.18,0,20.25,11.08,20.25,24.75c0,13.67-9.07,24.75-20.25,24.75    c-11.19,0-20.25-11.08-20.25-24.75C30.903,325.489,39.963,314.409,51.153,314.409z"/>
		<path style="fill:#EAB932;" d="M93.153,314.409c11.18,0,20.25,11.08,20.25,24.75c0,13.67-9.07,24.75-20.25,24.75h-42    c11.18,0,20.25-11.08,20.25-24.75c0-13.67-9.07-24.75-20.25-24.75H93.153z"/>
	</g>
	<g>
		
			<rect x="364.021" y="268.009" transform="matrix(0.9919 0.1267 -0.1267 0.9919 38.4146 -44.3748)" style="fill:#808080;" width="8" height="23.533"/>
		<path style="fill:#3B9DFF;" d="M404.141,294.39c-1.071-0.76-2.35-1.176-3.655-1.323l-71.753-8.08    c-3.782-0.425-7.584,2.06-8.339,6.511l0,39.042c0,4.142,3.358,7.5,7.5,7.5h22.289c4.12,0,7.672-3.206,7.766-7.325    c0.054-2.368-0.992-4.49-2.659-5.901c3.456-2.814,7.865-4.506,12.675-4.506c4.81,0,9.219,1.692,12.678,4.506    c-1.668,1.411-2.714,3.533-2.66,5.901c0.094,4.119,3.647,7.325,7.766,7.325h7.101c3.487,0,6.513-2.403,7.304-5.798l6.988-29.999    C407.822,299.338,406.723,296.221,404.141,294.39z"/>
		<path style="fill:#B3B3B3;" d="M329.743,320.309h68.813c3.97,0,7.188,3.218,7.188,7.188v3.825c0,3.97-3.218,7.188-7.188,7.188    h-70.661L329.743,320.309z"/>
		<path style="fill:#3B9DFF;" d="M334.563,292.439v33.83c0-18.92-15.35-34.26-34.27-34.26c-6.38,0-12.35,1.74-17.46,4.77v-39.27    h13.19h38.54V292.439z"/>
		<polygon style="fill:#A9D8FF;" points="335.743,281.509 301.243,277.009 301.543,268.009 301.703,259.009 301.743,256.969     334.563,257.509 334.623,259.009 334.953,268.009   "/>
		<path style="fill:#3B9DFF;" d="M339.063,257.509v73.04c0,2.48-2.01,4.5-4.5,4.5h-0.27c-2.49,0-4.5-2.02-4.5-4.5    c0-0.54,0.1-1.06,0.27-1.54v-67h-42.73v34.78c0,2.48-2.01,4.5-4.5,4.5c-2.49,0-4.5-2.02-4.5-4.5v-39.28c0-2.49,2.01-4.5,4.5-4.5    h51.73C337.053,253.009,339.063,255.019,339.063,257.509z"/>
		<rect x="310.743" y="259.009" style="fill:#3392D3;" width="28.32" height="9"/>
		<polygon style="fill:#88BFE5;" points="330.063,262.009 330.063,268.009 301.543,268.009 301.653,262.009 315.743,255.469   "/>
		<g>
			<path style="fill:#808080;" d="M374.636,314.805c-14.125,0-25.617,11.492-25.617,25.617s11.492,25.617,25.617,25.617     c14.125,0,25.617-11.492,25.617-25.617S388.761,314.805,374.636,314.805z"/>
			<path style="fill:#B3B3B3;" d="M374.636,326.278c-7.799,0-14.144,6.345-14.144,14.144c0,7.799,6.345,14.144,14.144,14.144     c7.799,0,14.144-6.345,14.144-14.144C388.779,332.623,382.434,326.278,374.636,326.278z"/>
			<path style="fill:#999999;" d="M365.159,345.089c0-7.799,6.345-14.144,14.144-14.144c2.705,0,5.226,0.777,7.377,2.1     c-2.49-4.051-6.95-6.766-12.044-6.766c-7.799,0-14.144,6.345-14.144,14.144c0,5.094,2.716,9.554,6.766,12.044     C365.936,350.315,365.159,347.794,365.159,345.089z"/>
			<circle style="fill:#666666;" cx="374.636" cy="340.422" r="4.517"/>
		</g>
		<g>
			<path style="fill:#808080;" d="M300.293,290.505c-20.825,0-37.767,16.942-37.767,37.767s16.942,37.767,37.767,37.767     s37.767-16.942,37.767-37.767S321.117,290.505,300.293,290.505z"/>
			<path style="fill:#B3B3B3;" d="M300.293,304.809c-12.938,0-23.463,10.526-23.463,23.464c0,12.938,10.526,23.464,23.463,23.464     c12.938,0,23.464-10.526,23.464-23.464C323.756,315.334,313.23,304.809,300.293,304.809z"/>
			<path style="fill:#999999;" d="M282.162,333.606c0-12.938,10.526-23.464,23.463-23.464c5.11,0,9.841,1.647,13.699,4.432     c-4.265-5.909-11.205-9.765-19.032-9.765c-12.938,0-23.463,10.526-23.463,23.464c0,7.827,3.856,14.767,9.765,19.032     C283.81,343.446,282.162,338.716,282.162,333.606z"/>
			<circle style="fill:#666666;" cx="300.293" cy="328.273" r="7.5"/>
		</g>
		<path style="fill:#3B9DFF;" d="M351.823,257.509c0,2.48-2.01,4.5-4.5,4.5h-68.99v-4.5c0-2.49,2.01-4.5,4.5-4.5h64.49    C349.813,253.009,351.823,255.019,351.823,257.509z"/>
	</g>
	<path style="fill:#07A521;" d="M222.399,370.401c-2.485,0-4.5-2.015-4.5-4.5v-12c0-2.485,2.015-4.5,4.5-4.5s4.5,2.015,4.5,4.5v12   C226.899,368.386,224.885,370.401,222.399,370.401z"/>
	<path style="fill:#07A521;" d="M202.399,370.401c-2.485,0-4.5-2.015-4.5-4.5v-12c0-2.485,2.015-4.5,4.5-4.5s4.5,2.015,4.5,4.5v12   C206.899,368.386,204.885,370.401,202.399,370.401z"/>
	<path style="fill:#07A521;" d="M243.399,370.401c-2.485,0-4.5-2.015-4.5-4.5v-12c0-2.485,2.015-4.5,4.5-4.5s4.5,2.015,4.5,4.5v12   C247.899,368.386,245.885,370.401,243.399,370.401z"/>
	<path style="fill:#07A521;" d="M63.243,370.401c-2.485,0-4.5-2.015-4.5-4.5v-12c0-2.485,2.015-4.5,4.5-4.5s4.5,2.015,4.5,4.5v12   C67.743,368.386,65.729,370.401,63.243,370.401z"/>
	<path style="fill:#07A521;" d="M414.899,370.401c-2.485,0-4.5-2.015-4.5-4.5v-12c0-2.485,2.015-4.5,4.5-4.5s4.5,2.015,4.5,4.5v12   C419.399,368.386,417.385,370.401,414.899,370.401z"/>
	<path style="fill:#07A521;" d="M320.243,370.401c-2.485,0-4.5-2.015-4.5-4.5v-12c0-2.485,2.015-4.5,4.5-4.5s4.5,2.015,4.5,4.5v12   C324.743,368.386,322.729,370.401,320.243,370.401z"/>
	<path style="fill:#07A521;" d="M115.399,370.401c-2.485,0-4.5-2.015-4.5-4.5v-12c0-2.485,2.015-4.5,4.5-4.5s4.5,2.015,4.5,4.5v12   C119.899,368.386,117.885,370.401,115.399,370.401z"/>
	<path style="fill:#3B9DFF;" d="M217.78,108.331c2.79,2.78,4.51,6.63,4.51,10.87c0,8.49-6.89,15.38-15.38,15.38h-74.86   c-2.82,0-5.46-0.76-7.73-2.09c-1.15-0.66-2.21-1.48-3.15-2.42c-2.78-2.78-4.5-6.63-4.5-10.87c0-8.49,6.88-15.37,15.38-15.37H87.93   c-4.25,0-8.09-1.72-10.87-4.5c-2.79-2.79-4.51-6.63-4.51-10.88c0-8.49,6.89-15.37,15.38-15.37h39.26h35.6   c4.25,0,8.09,1.72,10.88,4.5c2.78,2.78,4.5,6.62,4.5,10.87c0,8.5-6.88,15.38-15.38,15.38h44.12   C211.16,103.831,215,105.551,217.78,108.331z"/>
	<g>
		<path style="fill:#0FBC30;" d="M439.48,388.899H0c0-4.43,1.13-8.59,3.12-12.22c1.17-2.14,2.64-4.09,4.35-5.8    c4.61-4.62,10.99-7.47,18.03-7.47h388.48c9.65,0,18.05,5.36,22.38,13.27C438.35,380.309,439.48,384.469,439.48,388.899z"/>
		<path style="fill:#07A521;" d="M439.48,388.899H0c0-4.43,1.13-8.59,3.12-12.22h433.24    C438.35,380.309,439.48,384.469,439.48,388.899z"/>
	</g>
</g>















</svg>
